<svg width="78" height="78" viewBox="0 0 78 78" fill="none" xmlns="http://www.w3.org/2000/svg">
<g filter="url(#filter0_d_57_1734)">
<path d="M36 71C55.33 71 71 55.33 71 36C71 16.67 55.33 1 36 1C16.67 1 1 16.67 1 36C1 55.33 16.67 71 36 71Z" fill="#30BF39"/>
<path fill-rule="evenodd" clip-rule="evenodd" d="M43.6535 39.1351C43.2601 38.9189 41.3232 37.8859 40.9601 37.7417C40.5969 37.5976 40.3306 37.5195 40.0522 37.9099C39.7738 38.2943 38.9688 39.1652 38.7267 39.4234C38.4846 39.6817 38.2485 39.7057 37.8551 39.4895C37.4617 39.2733 36.1846 38.8048 34.7078 37.3934C33.5578 36.2943 32.8012 34.961 32.5833 34.5526C32.3654 34.1441 32.5833 33.9399 32.7891 33.7477C32.9767 33.5736 33.2067 33.2973 33.4186 33.0751C33.6244 32.8529 33.697 32.6847 33.8423 32.4264C33.9875 32.1682 33.927 31.9339 33.8362 31.7297C33.7454 31.5255 33.0131 29.5375 32.7104 28.7327C32.4078 27.9219 32.0688 28.042 31.8328 28.036C31.5967 28.03 31.3304 27.982 31.0641 27.976C30.7978 27.964 30.356 28.048 29.9747 28.4324C29.5933 28.8168 28.516 29.7417 28.4434 31.6997C28.3707 33.6577 29.7326 35.6036 29.9262 35.8739C30.1139 36.1502 32.5349 40.3904 36.5478 42.1381C40.5667 43.8859 40.5848 43.3514 41.3232 43.3153C42.0617 43.2793 43.7322 42.4384 44.1014 41.5255C44.4706 40.6066 44.5008 39.8138 44.404 39.6456C44.3072 39.4775 44.0469 39.3634 43.6535 39.1532V39.1351ZM36.2875 48.5706C33.6304 48.5706 31.161 47.7778 29.091 46.4264L24.0673 48.024L25.7015 43.2072C24.1339 41.0691 23.2139 38.4384 23.2139 35.5976C23.2139 28.4384 29.0789 22.6186 36.2875 22.6186C43.4961 22.6186 49.3671 28.4384 49.3671 35.5976C49.3671 42.7568 43.5022 48.5766 36.2875 48.5766V48.5706ZM36.2875 20.006C27.6141 20.006 20.581 26.985 20.581 35.5916C20.581 38.5345 21.4042 41.2913 22.8387 43.6396L20 52L28.6976 49.2372C30.9491 50.4745 33.5336 51.1772 36.2875 51.1772C44.9669 51.1772 52 44.1982 52 35.5856C52 26.973 44.9669 20 36.2875 20V20.006Z" fill="white"/>
</g>
<defs>
<filter id="filter0_d_57_1734" x="0" y="0" width="78" height="78" filterUnits="userSpaceOnUse" color-interpolation-filters="sRGB">
<feFlood flood-opacity="0" result="BackgroundImageFix"/>
<feColorMatrix in="SourceAlpha" type="matrix" values="0 0 0 0 0 0 0 0 0 0 0 0 0 0 0 0 0 0 127 0" result="hardAlpha"/>
<feOffset dx="3" dy="3"/>
<feGaussianBlur stdDeviation="2"/>
<feColorMatrix type="matrix" values="0 0 0 0 0 0 0 0 0 0 0 0 0 0 0 0 0 0 0.1 0"/>
<feBlend mode="normal" in2="BackgroundImageFix" result="effect1_dropShadow_57_1734"/>
<feBlend mode="normal" in="SourceGraphic" in2="effect1_dropShadow_57_1734" result="shape"/>
</filter>
</defs>
</svg>
