<svg width="26" height="25" viewBox="0 0 26 25" fill="none" xmlns="http://www.w3.org/2000/svg">
<path fill-rule="evenodd" clip-rule="evenodd" d="M0.5 3.57143C0.5 1.59898 2.09898 0 4.07143 0H5.70432C6.72858 0 7.62139 0.697092 7.86981 1.69077L9.18624 6.95646C9.40406 7.82774 9.0785 8.7447 8.36003 9.28355L6.82 10.4386C6.66008 10.5585 6.62532 10.7341 6.67024 10.8568C8.02204 14.547 10.953 17.478 14.6432 18.8298C14.7659 18.8747 14.9415 18.8399 15.0614 18.68L16.2164 17.14C16.7553 16.4215 17.6723 16.0959 18.5435 16.3138L23.8092 17.6302C24.8029 17.8786 25.5 18.7714 25.5 19.7957V21.4286C25.5 23.401 23.901 25 21.9286 25H19.25C8.89466 25 0.5 16.6053 0.5 6.25V3.57143Z" fill="white"/>
</svg>
