<svg width="25" height="24" viewBox="0 0 25 24" fill="none" xmlns="http://www.w3.org/2000/svg">
<path d="M24.4649 12.9277C24.4881 12.6216 24.5 12.3122 24.5 12C24.5 10.1191 24.0696 8.33899 23.3021 6.75332C21.7795 8.20253 19.9673 9.34867 17.9614 10.0954C18.0124 10.7235 18.0385 11.3587 18.0385 12C18.0385 13.3589 17.9216 14.6905 17.6975 15.9852C20.1508 15.3662 22.4345 14.3191 24.4649 12.9277Z" fill="white"/>
<path d="M15.7422 16.381C16.0372 14.9672 16.1923 13.5017 16.1923 12C16.1923 11.5454 16.1781 11.0941 16.1501 10.6466C14.9788 10.9263 13.7567 11.0745 12.5 11.0745C11.2433 11.0745 10.0212 10.9263 8.84991 10.6466C8.82191 11.0941 8.80769 11.5454 8.80769 12C8.80769 13.5017 8.96278 14.9672 9.25778 16.381C10.3149 16.5435 11.3976 16.6277 12.5 16.6277C13.6024 16.6277 14.6851 16.5435 15.7422 16.381Z" fill="white"/>
<path d="M9.75814 18.3172C10.6573 18.4239 11.5722 18.4788 12.5 18.4788C13.4278 18.4788 14.3427 18.4239 15.2419 18.3172C14.6095 20.3603 13.6785 22.2717 12.5 24C11.3215 22.2717 10.3905 20.3603 9.75814 18.3172Z" fill="white"/>
<path d="M7.30253 15.9852C7.07838 14.6905 6.96154 13.3589 6.96154 12C6.96154 11.3587 6.98756 10.7235 7.0386 10.0954C5.03275 9.34867 3.22048 8.20253 1.69794 6.75332C0.930442 8.33899 0.5 10.1191 0.5 12C0.5 12.3122 0.511859 12.6216 0.535145 12.9277C2.56555 14.3191 4.84921 15.3662 7.30253 15.9852Z" fill="white"/>
<path d="M24.0151 15.3968C22.7651 19.6641 19.2197 22.9468 14.8109 23.8091C15.8772 22.0111 16.7074 20.0558 17.2587 17.9863C19.6708 17.4793 21.9444 16.5946 24.0151 15.3968Z" fill="white"/>
<path d="M0.984862 15.3968C3.0556 16.5946 5.3292 17.4793 7.7413 17.9863C8.29257 20.0558 9.1228 22.0111 10.1891 23.8091C5.78034 22.9468 2.23494 19.6641 0.984862 15.3968Z" fill="white"/>
<path d="M14.8109 0.190878C17.9143 0.797903 20.59 2.60425 22.3383 5.10912C21.0355 6.42814 19.4707 7.48655 17.7287 8.19941C17.2533 5.315 16.2459 2.61057 14.8109 0.190878Z" fill="white"/>
<path d="M12.5 0C14.2584 2.57867 15.4658 5.56495 15.9523 8.78839C14.8487 9.07237 13.6919 9.22338 12.5 9.22338C11.3081 9.22338 10.1513 9.07237 9.04773 8.78839C9.53421 5.56495 10.7416 2.57867 12.5 0Z" fill="white"/>
<path d="M10.1891 0.190875C8.75413 2.61057 7.74671 5.315 7.27134 8.19941C5.52928 7.48655 3.96448 6.42814 2.66166 5.10912C4.41002 2.60425 7.08566 0.7979 10.1891 0.190875Z" fill="white"/>
</svg>
